{
  "accessors": [
    {
      "bufferView": 2,
      "componentType": 5126,
      "count": 1488,
      "max": [
        189.18930053710938,
        1.2899999618530273,
        -143.79150390625
      ],
      "min": [
        -192.02220153808594,
        -1.2899999618530273,
        -219.77859497070312
      ],
      "type": "VEC3"
    },
    {
      "bufferView": 2,
      "byteOffset": 17856,
      "componentType": 5126,
      "count": 1488,
      "max": [
        1,
        1,
        1
      ],
      "min": [
        -1,
        -1,
        -1
      ],
      "type": "VEC3"
    },
    {
      "bufferView": 3,
      "componentType": 5126,
      "count": 1488,
      "max": [
        1,
        0,
        0.13255183398723602,
        1
      ],
      "min": [
        -1,
        0,
        -0.26348912715911865,
        -1
      ],
      "type": "VEC4"
    },
    {
      "bufferView": 1,
      "componentType": 5126,
      "count": 1488,
      "max": [
        1,
        1
      ],
      "min": [
        0,
        0
      ],
      "type": "VEC2"
    },
    {
      "bufferView": 0,
      "componentType": 5125,
      "count": 3852,
      "max": [
        1487
      ],
      "min": [
        0
      ],
      "type": "SCALAR"
    },
    {
      "bufferView": 2,
      "byteOffset": 35712,
      "componentType": 5126,
      "count": 146,
      "max": [
        220.57060241699219,
        1.2899999618530273,
        34.395500183105469
      ],
      "min": [
        -81.522598266601562,
        -1.2901999950408936,
        -57.863800048828125
      ],
      "type": "VEC3"
    },
    {
      "bufferView": 2,
      "byteOffset": 37464,
      "componentType": 5126,
      "count": 146,
      "max": [
        0.99884247779846191,
        1,
        0.99943876266479492
      ],
      "min": [
        -0.99584144353866577,
        -1,
        -0.9988134503364563
      ],
      "type": "VEC3"
    },
    {
      "bufferView": 3,
      "byteOffset": 23808,
      "componentType": 5126,
      "count": 146,
      "max": [
        0,
        0,
        0.12425969541072845,
        1
      ],
      "min": [
        -0.99224984645843506,
        0,
        -0.79471570253372192,
        -1
      ],
      "type": "VEC4"
    },
    {
      "bufferView": 1,
      "byteOffset": 11904,
      "componentType": 5126,
      "count": 146,
      "max": [
        1,
        1
      ],
      "min": [
        0.45899999141693115,
        0.39669999480247498
      ],
      "type": "VEC2"
    },
    {
      "bufferView": 0,
      "byteOffset": 15408,
      "componentType": 5125,
      "count": 396,
      "max": [
        145
      ],
      "min": [
        0
      ],
      "type": "SCALAR"
    },
    {
      "bufferView": 2,
      "byteOffset": 39216,
      "componentType": 5126,
      "count": 64,
      "max": [
        183.38020324707031,
        1.2901999950408936,
        25.212299346923828
      ],
      "min": [
        -186.61419677734375,
        -1.2901999950408936,
        -94.339897155761719
      ],
      "type": "VEC3"
    },
    {
      "bufferView": 2,
      "byteOffset": 39984,
      "componentType": 5126,
      "count": 64,
      "max": [
        0.36181879043579102,
        1,
        0.95260751247406006
      ],
      "min": [
        -1,
        -1,
        -0.94748663902282715
      ],
      "type": "VEC3"
    },
    {
      "bufferView": 3,
      "byteOffset": 26144,
      "componentType": 5126,
      "count": 64,
      "max": [
        0.96038991212844849,
        0,
        0.3311571478843689,
        1
      ],
      "min": [
        0,
        0,
        0,
        -1
      ],
      "type": "VEC4"
    },
    {
      "bufferView": 1,
      "byteOffset": 13072,
      "componentType": 5126,
      "count": 64,
      "max": [
        1,
        1
      ],
      "min": [
        0,
        0
      ],
      "type": "VEC2"
    },
    {
      "bufferView": 0,
      "byteOffset": 16992,
      "componentType": 5125,
      "count": 102,
      "max": [
        63
      ],
      "min": [
        0
      ],
      "type": "SCALAR"
    },
    {
      "bufferView": 2,
      "byteOffset": 40752,
      "componentType": 5126,
      "count": 190,
      "max": [
        128.08909606933594,
        1.2899999618530273,
        219.77859497070312
      ],
      "min": [
        -54.162700653076172,
        -1.2899999618530273,
        -115.43119812011719
      ],
      "type": "VEC3"
    },
    {
      "bufferView": 2,
      "byteOffset": 43032,
      "componentType": 5126,
      "count": 190,
      "max": [
        1,
        1,
        0.96770113706588745
      ],
      "min": [
        -1,
        -1,
        -0.99999487400054932
      ],
      "type": "VEC3"
    },
    {
      "bufferView": 3,
      "byteOffset": 27168,
      "componentType": 5126,
      "count": 190,
      "max": [
        1,
        0,
        0,
        1
      ],
      "min": [
        0,
        0,
        -0.3020825982093811,
        -1
      ],
      "type": "VEC4"
    },
    {
      "bufferView": 1,
      "byteOffset": 13584,
      "componentType": 5126,
      "count": 190,
      "max": [
        1,
        1
      ],
      "min": [
        0,
        0
      ],
      "type": "VEC2"
    },
    {
      "bufferView": 0,
      "byteOffset": 17400,
      "componentType": 5125,
      "count": 528,
      "max": [
        189
      ],
      "min": [
        0
      ],
      "type": "SCALAR"
    },
    {
      "bufferView": 2,
      "byteOffset": 45312,
      "componentType": 5126,
      "count": 144,
      "max": [
        79.447799682617188,
        1.2899999618530273,
        -10.722299575805664
      ],
      "min": [
        -220.57060241699219,
        -1.2898999452590942,
        -115.43119812011719
      ],
      "type": "VEC3"
    },
    {
      "bufferView": 2,
      "byteOffset": 47040,
      "componentType": 5126,
      "count": 144,
      "max": [
        0.99514651298522949,
        1,
        0.99992311000823975
      ],
      "min": [
        -0.99999690055847168,
        -1,
        -0.99992799758911133
      ],
      "type": "VEC3"
    },
    {
      "bufferView": 3,
      "byteOffset": 30208,
      "componentType": 5126,
      "count": 144,
      "max": [
        0.96293032169342041,
        0,
        0.79028940200805664,
        1
      ],
      "min": [
        0,
        -0.87369191646575928,
        -0.70035308599472046,
        -1
      ],
      "type": "VEC4"
    },
    {
      "bufferView": 1,
      "byteOffset": 15104,
      "componentType": 5126,
      "count": 144,
      "max": [
        1,
        1
      ],
      "min": [
        0,
        0
      ],
      "type": "VEC2"
    },
    {
      "bufferView": 0,
      "byteOffset": 19512,
      "componentType": 5125,
      "count": 390,
      "max": [
        143
      ],
      "min": [
        0
      ],
      "type": "SCALAR"
    }
  ],
  "asset": {
    "extras": {
      "author": "Noise Bomb (https://sketchfab.com/NoiseBomb)",
      "license": "CC-BY-4.0 (http://creativecommons.org/licenses/by/4.0/)",
      "source": "https://sketchfab.com/3d-models/playstation-logo-flat-2f13c86488544710978b6e7c6bde8e81",
      "title": "PlayStation Logo [Flat]"
    },
    "generator": "Sketchfab-6.6.0",
    "version": "2.0"
  },
  "bufferViews": [
    {
      "buffer": 0,
      "byteLength": 21072,
      "byteOffset": 0,
      "name": "floatBufferViews",
      "target": 34963
    },
    {
      "buffer": 0,
      "byteLength": 16256,
      "byteOffset": 21072,
      "byteStride": 8,
      "name": "floatBufferViews",
      "target": 34962
    },
    {
      "buffer": 0,
      "byteLength": 48768,
      "byteOffset": 37328,
      "byteStride": 12,
      "name": "floatBufferViews",
      "target": 34962
    },
    {
      "buffer": 0,
      "byteLength": 32512,
      "byteOffset": 86096,
      "byteStride": 16,
      "name": "floatBufferViews",
      "target": 34962
    }
  ],
  "buffers": [
    {
      "byteLength": 118608,
      "uri": "scene.bin"
    }
  ],
  "materials": [
    {
      "doubleSided": true,
      "name": "Black",
      "pbrMetallicRoughness": {
        "baseColorFactor": [
          0,
          0,
          0,
          1
        ],
        "metallicFactor": 0,
        "roughnessFactor": 0.59999999999999998
      }
    },
    {
      "doubleSided": true,
      "name": "Blue",
      "pbrMetallicRoughness": {
        "baseColorFactor": [
          0.024157632448504746,
          0.13563332965520566,
          0.40197777983219563,
          1
        ],
        "metallicFactor": 0,
        "roughnessFactor": 0.59999999999999998
      }
    },
    {
      "doubleSided": true,
      "name": "Green",
      "pbrMetallicRoughness": {
        "baseColorFactor": [
          0,
          0.35153259950043925,
          0.30498731406988611,
          1
        ],
        "metallicFactor": 0,
        "roughnessFactor": 0.59999999999999998
      }
    },
    {
      "doubleSided": true,
      "name": "material",
      "pbrMetallicRoughness": {
        "baseColorFactor": [
          0.63759687399403264,
          0,
          0.011612245179743921,
          1
        ],
        "metallicFactor": 0,
        "roughnessFactor": 0.59999999999999998
      }
    },
    {
      "doubleSided": true,
      "name": "Yellow",
      "pbrMetallicRoughness": {
        "baseColorFactor": [
          0.78353779152619329,
          0.4793201831008268,
          0,
          1
        ],
        "metallicFactor": 0,
        "roughnessFactor": 0.59999999999999998
      }
    }
  ],
  "meshes": [
    {
      "primitives": [
        {
          "attributes": {
            "NORMAL": 1,
            "POSITION": 0,
            "TANGENT": 2,
            "TEXCOORD_0": 3
          },
          "indices": 4,
          "material": 0,
          "mode": 4
        }
      ]
    },
    {
      "primitives": [
        {
          "attributes": {
            "NORMAL": 6,
            "POSITION": 5,
            "TANGENT": 7,
            "TEXCOORD_0": 8
          },
          "indices": 9,
          "material": 1,
          "mode": 4
        }
      ]
    },
    {
      "primitives": [
        {
          "attributes": {
            "NORMAL": 11,
            "POSITION": 10,
            "TANGENT": 12,
            "TEXCOORD_0": 13
          },
          "indices": 14,
          "material": 2,
          "mode": 4
        }
      ]
    },
    {
      "primitives": [
        {
          "attributes": {
            "NORMAL": 16,
            "POSITION": 15,
            "TANGENT": 17,
            "TEXCOORD_0": 18
          },
          "indices": 19,
          "material": 3,
          "mode": 4
        }
      ]
    },
    {
      "primitives": [
        {
          "attributes": {
            "NORMAL": 21,
            "POSITION": 20,
            "TANGENT": 22,
            "TEXCOORD_0": 23
          },
          "indices": 24,
          "material": 4,
          "mode": 4
        }
      ]
    }
  ],
  "nodes": [
    {
      "children": [
        1
      ],
      "name": "RootNode (gltf orientation matrix)",
      "rotation": [
        -0.70710678118654746,
        -0,
        -0,
        0.70710678118654757
      ]
    },
    {
      "children": [
        2
      ],
      "name": "RootNode (model correction matrix)"
    },
    {
      "children": [
        3,
        4,
        5,
        6,
        7
      ],
      "name": "abd20a6909c344689434cc5af40bf278.obj.cleaner.materialmerger.gles"
    },
    {
      "mesh": 0,
      "name": ""
    },
    {
      "mesh": 1,
      "name": ""
    },
    {
      "mesh": 2,
      "name": ""
    },
    {
      "mesh": 3,
      "name": ""
    },
    {
      "mesh": 4,
      "name": ""
    }
  ],
  "scene": 0,
  "scenes": [
    {
      "name": "OSG_Scene",
      "nodes": [
        0
      ]
    }
  ]
}

